<svg xmlns="http://www.w3.org/2000/svg" width="148" height="37" fill="none" viewBox="0 0 148 37">
  <path fill="#0B132A" d="M47.04 25.116a.463.463 0 0 1-.34-.14.463.463 0 0 1-.14-.34v-13.04c0-.133.047-.246.14-.34a.463.463 0 0 1 .34-.14h1.86c.133 0 .247.047.34.14.093.094.14.207.14.34v11.14h6.34c.147 0 .267.047.36.14.093.093.14.213.14.36v1.4a.463.463 0 0 1-.14.34.487.487 0 0 1-.36.14h-8.68Zm13.902.2c-.694 0-1.32-.133-1.88-.4a3.656 3.656 0 0 1-1.34-1.1 2.697 2.697 0 0 1-.48-1.56c0-.933.373-1.673 1.12-2.22.76-.56 1.76-.933 3-1.12l2.74-.4v-.42c0-.56-.14-.993-.42-1.3-.28-.306-.76-.46-1.44-.46-.48 0-.874.1-1.18.3a1.74 1.74 0 0 0-.66.76.51.51 0 0 1-.46.26h-1.58c-.147 0-.26-.04-.34-.12a.484.484 0 0 1-.1-.32c.013-.213.1-.473.26-.78.16-.306.413-.6.76-.88.346-.293.793-.54 1.34-.74.546-.2 1.206-.3 1.98-.3.84 0 1.546.107 2.12.32.586.2 1.053.473 1.4.82.346.347.6.754.76 1.22.16.467.24.96.24 1.48v6.28a.463.463 0 0 1-.14.34.463.463 0 0 1-.34.14h-1.62a.487.487 0 0 1-.36-.14.505.505 0 0 1-.12-.34v-.78a3.229 3.229 0 0 1-.7.72 4.09 4.09 0 0 1-1.08.54c-.414.134-.907.2-1.48.2Zm.68-1.9c.466 0 .886-.1 1.26-.3.386-.2.686-.506.9-.92.226-.427.34-.96.34-1.6v-.42l-2 .32c-.787.12-1.374.314-1.76.58-.387.267-.58.593-.58.98 0 .293.086.547.26.76.186.2.42.354.7.46.28.093.573.14.88.14Zm11.665 1.9c-.8 0-1.486-.093-2.06-.28-.56-.187-1.02-.42-1.38-.7-.36-.28-.626-.56-.8-.84-.173-.28-.266-.513-.28-.7-.013-.146.027-.26.12-.34a.51.51 0 0 1 .34-.14h1.58c.054 0 .1.007.14.02.04.014.094.054.16.12.174.147.354.3.54.46.2.16.434.3.7.42.267.107.6.16 1 .16.52 0 .954-.1 1.3-.3.36-.213.54-.513.54-.9 0-.28-.08-.506-.24-.68-.146-.173-.426-.326-.84-.46-.413-.146-1-.3-1.76-.46-.746-.173-1.366-.393-1.86-.66-.493-.267-.86-.6-1.1-1-.24-.4-.36-.867-.36-1.4 0-.52.154-1.013.46-1.48.32-.48.787-.873 1.4-1.18.627-.307 1.4-.46 2.32-.46.72 0 1.347.094 1.88.28.534.174.974.394 1.32.66.36.267.634.54.82.82.187.267.287.5.3.7a.428.428 0 0 1-.12.36c-.093.08-.2.12-.32.12h-1.48a.397.397 0 0 1-.18-.04 1.058 1.058 0 0 1-.16-.1 17.909 17.909 0 0 0-.48-.42 2.461 2.461 0 0 0-.64-.38c-.24-.12-.56-.18-.96-.18-.506 0-.893.114-1.16.34-.266.214-.4.487-.4.82 0 .227.06.427.18.6.134.16.394.314.78.46.387.147.974.3 1.76.46.894.16 1.6.4 2.12.72.534.307.907.667 1.12 1.08.227.4.34.847.34 1.34 0 .6-.18 1.14-.54 1.62-.346.48-.866.86-1.56 1.14-.68.267-1.526.4-2.54.4Zm7.205-.2a.463.463 0 0 1-.34-.14.463.463 0 0 1-.14-.34v-13.24a.46.46 0 0 1 .14-.34.463.463 0 0 1 .34-.14h1.66c.133 0 .246.047.34.14.093.094.14.207.14.34v13.24a.463.463 0 0 1-.14.34.463.463 0 0 1-.34.14h-1.66Zm9.273.2c-1.48 0-2.653-.426-3.52-1.28-.867-.853-1.334-2.067-1.4-3.64-.013-.133-.02-.3-.02-.5 0-.213.007-.38.02-.5.053-1 .28-1.867.68-2.6a4.208 4.208 0 0 1 1.7-1.68c.72-.4 1.567-.6 2.54-.6 1.08 0 1.986.227 2.72.68a4.17 4.17 0 0 1 1.66 1.86c.373.787.56 1.7.56 2.74v.42a.463.463 0 0 1-.14.34.487.487 0 0 1-.36.14h-6.64v.16c.013.467.1.9.26 1.3.173.387.42.7.74.94.333.24.727.36 1.18.36.373 0 .686-.053.94-.16a2.56 2.56 0 0 0 .96-.76c.12-.16.213-.253.28-.28.08-.04.193-.06.34-.06h1.72c.133 0 .24.04.32.12.093.08.133.18.12.3-.013.213-.127.474-.34.78-.2.307-.493.607-.88.9-.387.294-.873.54-1.46.74-.574.187-1.234.28-1.98.28Zm-2.2-6.3h4.42v-.06c0-.52-.087-.973-.26-1.36a2.148 2.148 0 0 0-.76-.92c-.334-.226-.734-.34-1.2-.34-.467 0-.867.114-1.2.34a2.15 2.15 0 0 0-.76.92c-.16.387-.24.84-.24 1.36v.06Zm13.203 6.3c-.8 0-1.487-.093-2.06-.28-.56-.187-1.02-.42-1.38-.7-.36-.28-.627-.56-.8-.84-.174-.28-.267-.513-.28-.7-.014-.146.026-.26.12-.34a.51.51 0 0 1 .34-.14h1.58c.053 0 .1.007.14.02a.51.51 0 0 1 .16.12l.54.46c.2.16.433.3.7.42.266.107.6.16 1 .16.52 0 .953-.1 1.3-.3.36-.213.54-.513.54-.9 0-.28-.08-.506-.24-.68-.147-.173-.427-.326-.84-.46-.414-.146-1-.3-1.76-.46-.747-.173-1.367-.393-1.86-.66-.493-.267-.86-.6-1.1-1-.24-.4-.36-.867-.36-1.4 0-.52.153-1.013.46-1.48.32-.48.786-.873 1.4-1.18.627-.307 1.4-.46 2.32-.46.72 0 1.346.094 1.88.28.533.174.973.394 1.32.66.36.267.633.54.82.82.186.267.286.5.3.7a.43.43 0 0 1-.12.36c-.094.08-.2.12-.32.12h-1.48a.395.395 0 0 1-.18-.04 1.007 1.007 0 0 1-.16-.1 19.25 19.25 0 0 0-.48-.42 2.48 2.48 0 0 0-.64-.38c-.24-.12-.56-.18-.96-.18-.507 0-.894.114-1.16.34-.267.214-.4.487-.4.82 0 .227.06.427.18.6.133.16.393.314.78.46.386.147.973.3 1.76.46.893.16 1.6.4 2.12.72.533.307.906.667 1.12 1.08.226.4.34.847.34 1.34 0 .6-.18 1.14-.54 1.62-.347.48-.867.86-1.56 1.14-.68.267-1.527.4-2.54.4Zm10.784-.2c-.226 0-.406-.06-.54-.18a.982.982 0 0 1-.28-.42l-4.08-12.8a.506.506 0 0 1-.04-.18c0-.106.04-.2.12-.28.094-.093.2-.14.32-.14h2.48c.214 0 .38.06.5.18s.194.234.22.34l2.82 9.24 2.84-9.24c.04-.106.114-.22.22-.34.12-.12.287-.18.5-.18h2.48c.12 0 .22.047.3.14.094.08.14.174.14.28a.485.485 0 0 1-.04.18l-4.08 12.8a.965.965 0 0 1-.28.42c-.12.12-.3.18-.54.18h-3.06Zm10.368 0a.486.486 0 0 1-.36-.14.485.485 0 0 1-.14-.36v-13c0-.146.046-.266.14-.36a.486.486 0 0 1 .36-.14h5.6c1.106 0 2.066.174 2.88.52.826.334 1.466.84 1.92 1.52.466.68.7 1.54.7 2.58 0 1.027-.234 1.873-.7 2.54-.454.667-1.094 1.16-1.92 1.48-.814.32-1.774.48-2.88.48h-2.38v4.38a.459.459 0 0 1-.16.36.49.49 0 0 1-.36.14h-2.7Zm3.16-7.64h2.34c.573 0 1.026-.146 1.36-.44.346-.293.52-.74.52-1.34 0-.506-.147-.933-.44-1.28-.294-.347-.774-.52-1.44-.52h-2.34v3.58Zm10.355 7.64a.486.486 0 0 1-.36-.14.489.489 0 0 1-.14-.36v-13a.49.49 0 0 1 .14-.36.486.486 0 0 1 .36-.14h2.12c.227 0 .387.053.48.16a.879.879 0 0 1 .2.22l4.88 7.7v-7.58a.49.49 0 0 1 .14-.36.486.486 0 0 1 .36-.14h2.4c.147 0 .267.047.36.14a.49.49 0 0 1 .14.36v13a.534.534 0 0 1-.14.36.486.486 0 0 1-.36.14h-2.14c-.213 0-.373-.053-.48-.16a2.862 2.862 0 0 1-.18-.22l-4.88-7.4v7.28a.489.489 0 0 1-.14.36.486.486 0 0 1-.36.14h-2.4Z"/>
  <path fill="#F53838" d="m31.147 13.648-.021-.022a.013.013 0 0 1-.005-.005L17.502 0 3.88 13.62l-.004.006-.023.021a13.245 13.245 0 0 0 13.283 22 1.26 1.26 0 0 1 .73 0 13.243 13.243 0 0 0 17.04-14.242 13.246 13.246 0 0 0-3.759-7.757ZM8.723 22.63a.714.714 0 0 0-.209.505 13.219 13.219 0 0 0 1.965 6.802.258.258 0 0 1-.317.375 7.947 7.947 0 0 1-2.543-12.938L17.5 7.493l9.882 9.881a7.945 7.945 0 0 1-.007 11.231 7.922 7.922 0 0 1-2.536 1.707.26.26 0 0 1-.318-.375 13.22 13.22 0 0 0 1.966-6.802.713.713 0 0 0-.21-.505l-4.674-4.958a.26.26 0 0 0-.391.326c1.815 3.285.254 8.004-2.35 10.607l-.013.014a1.918 1.918 0 0 1-2.7 0l-.012-.014c-2.604-2.603-4.164-7.322-2.349-10.607a.258.258 0 0 0-.39-.326L8.722 22.63Z"/>
</svg>
